<mxfile host="app.diagrams.net" modified="2021-01-26T07:41:29.945Z" agent="5.0 (Windows NT 10.0; Win64; x64) AppleWebKit/537.36 (KHTML, like Gecko) Chrome/87.0.4280.141 Safari/537.36" etag="qrqm2YGHqHzP5gBOaHJH" version="14.2.7" type="github">
  <diagram id="C5RBs43oDa-KdzZeNtuy" name="Page-1">
    <mxGraphModel dx="782" dy="507" grid="1" gridSize="10" guides="1" tooltips="1" connect="1" arrows="1" fold="1" page="1" pageScale="1" pageWidth="827" pageHeight="1169" math="0" shadow="0">
      <root>
        <mxCell id="WIyWlLk6GJQsqaUBKTNV-0" />
        <mxCell id="WIyWlLk6GJQsqaUBKTNV-1" parent="WIyWlLk6GJQsqaUBKTNV-0" />
        <mxCell id="XCdqYYizZKv7FUI_49sd-4" value="" style="endArrow=classic;html=1;exitX=0.5;exitY=1;exitDx=0;exitDy=0;" edge="1" parent="WIyWlLk6GJQsqaUBKTNV-1" source="XCdqYYizZKv7FUI_49sd-2">
          <mxGeometry width="50" height="50" relative="1" as="geometry">
            <mxPoint x="570" y="200" as="sourcePoint" />
            <mxPoint x="565" y="230" as="targetPoint" />
          </mxGeometry>
        </mxCell>
        <mxCell id="XCdqYYizZKv7FUI_49sd-5" value="1" style="ellipse;whiteSpace=wrap;html=1;aspect=fixed;" vertex="1" parent="WIyWlLk6GJQsqaUBKTNV-1">
          <mxGeometry x="110" y="30" width="20" height="20" as="geometry" />
        </mxCell>
        <mxCell id="XCdqYYizZKv7FUI_49sd-6" value="" style="endArrow=classic;html=1;" edge="1" parent="WIyWlLk6GJQsqaUBKTNV-1" source="XCdqYYizZKv7FUI_49sd-5" target="XCdqYYizZKv7FUI_49sd-7">
          <mxGeometry width="50" height="50" relative="1" as="geometry">
            <mxPoint x="380" y="290" as="sourcePoint" />
            <mxPoint x="565" y="120" as="targetPoint" />
          </mxGeometry>
        </mxCell>
        <mxCell id="XCdqYYizZKv7FUI_49sd-16" value="" style="group" vertex="1" connectable="0" parent="WIyWlLk6GJQsqaUBKTNV-1">
          <mxGeometry x="110" y="120" width="20" height="90" as="geometry" />
        </mxCell>
        <mxCell id="XCdqYYizZKv7FUI_49sd-7" value="2" style="ellipse;whiteSpace=wrap;html=1;aspect=fixed;" vertex="1" parent="XCdqYYizZKv7FUI_49sd-16">
          <mxGeometry width="20" height="20" as="geometry" />
        </mxCell>
        <mxCell id="XCdqYYizZKv7FUI_49sd-8" value="" style="endArrow=classic;html=1;" edge="1" parent="XCdqYYizZKv7FUI_49sd-16" source="XCdqYYizZKv7FUI_49sd-7">
          <mxGeometry width="50" height="50" relative="1" as="geometry">
            <mxPoint x="-175" y="260" as="sourcePoint" />
            <mxPoint x="10" y="90" as="targetPoint" />
          </mxGeometry>
        </mxCell>
      </root>
    </mxGraphModel>
  </diagram>
</mxfile>
